<svg width="900" height="520" viewBox="0 0 900 520" fill="none" xmlns="http://www.w3.org/2000/svg">
  <rect width="900" height="520" rx="36" fill="url(#surface)"/>

  <g opacity="0.4">
    <circle cx="178" cy="102" r="162" fill="url(#glowA)"/>
    <circle cx="742" cy="390" r="210" fill="url(#glowB)"/>
    <circle cx="554" cy="166" r="138" fill="url(#glowC)"/>
  </g>

  <g opacity="0.14" stroke="url(#grid)" stroke-width="2">
    <path d="M54 118H846"/>
    <path d="M74 202H826"/>
    <path d="M52 304H848"/>
    <path d="M94 410H806"/>
    <path d="M146 42V474"/>
    <path d="M336 30V488"/>
    <path d="M546 24V494"/>
    <path d="M736 46V472"/>
  </g>

  <g filter="url(#softBlur)">
    <path d="M-24 384C118 282 232 270 368 288C486 304 586 364 696 376C784 386 860 370 930 320V564H-24V384Z" fill="url(#waveA)" fill-opacity="0.42"/>
    <path d="M96 -10C230 36 326 128 454 156C560 178 684 156 816 88C864 64 898 40 930 8V-110H96V-10Z" fill="url(#waveB)" fill-opacity="0.3"/>
  </g>

  <g filter="url(#glassShadow)" opacity="0.34">
    <rect x="82" y="90" width="236" height="150" rx="30" fill="url(#windowA)" stroke="url(#strokeA)"/>
    <rect x="110" y="116" width="180" height="24" rx="12" fill="#FFFFFF" fill-opacity="0.8"/>
    <rect x="110" y="154" width="78" height="54" rx="18" fill="#FFFFFF" fill-opacity="0.62"/>
    <rect x="202" y="154" width="88" height="54" rx="18" fill="#E8FBFF" fill-opacity="0.74"/>

    <rect x="354" y="78" width="184" height="120" rx="28" fill="url(#windowB)" stroke="url(#strokeA)"/>
    <rect x="382" y="104" width="128" height="18" rx="9" fill="#FFFFFF" fill-opacity="0.76"/>
    <rect x="382" y="138" width="92" height="18" rx="9" fill="#F2FDFF" fill-opacity="0.7"/>

    <rect x="572" y="98" width="246" height="176" rx="34" fill="url(#windowC)" stroke="url(#strokeA)"/>
    <rect x="602" y="126" width="184" height="24" rx="12" fill="#FFFFFF" fill-opacity="0.78"/>
    <rect x="602" y="164" width="82" height="80" rx="22" fill="#FFFFFF" fill-opacity="0.6"/>
    <rect x="698" y="164" width="88" height="36" rx="18" fill="#E7FBFF" fill-opacity="0.74"/>
    <rect x="698" y="208" width="88" height="36" rx="18" fill="#D6F8FF" fill-opacity="0.68"/>

    <rect x="140" y="288" width="268" height="128" rx="32" fill="url(#windowD)" stroke="url(#strokeA)"/>
    <rect x="170" y="318" width="204" height="18" rx="9" fill="#FFFFFF" fill-opacity="0.74"/>
    <rect x="170" y="350" width="154" height="18" rx="9" fill="#F2FDFF" fill-opacity="0.68"/>

    <rect x="450" y="300" width="312" height="126" rx="34" fill="url(#windowE)" stroke="url(#strokeA)"/>
    <rect x="482" y="330" width="96" height="54" rx="18" fill="#FFFFFF" fill-opacity="0.64"/>
    <rect x="594" y="330" width="136" height="18" rx="9" fill="#FFFFFF" fill-opacity="0.76"/>
    <rect x="594" y="362" width="102" height="18" rx="9" fill="#E7FBFF" fill-opacity="0.68"/>
  </g>

  <defs>
    <linearGradient id="surface" x1="60" y1="26" x2="842" y2="498" gradientUnits="userSpaceOnUse">
      <stop stop-color="#FFFFFF" stop-opacity="0.36"/>
      <stop offset="1" stop-color="#E8FBFF" stop-opacity="0.18"/>
    </linearGradient>
    <radialGradient id="glowA" cx="0" cy="0" r="1" gradientUnits="userSpaceOnUse" gradientTransform="translate(178 102) rotate(90) scale(162)">
      <stop stop-color="#FFFFFF" stop-opacity="0.8"/>
      <stop offset="1" stop-color="#FFFFFF" stop-opacity="0"/>
    </radialGradient>
    <radialGradient id="glowB" cx="0" cy="0" r="1" gradientUnits="userSpaceOnUse" gradientTransform="translate(742 390) rotate(90) scale(210)">
      <stop stop-color="#BDEFFF" stop-opacity="0.42"/>
      <stop offset="1" stop-color="#8FDEFF" stop-opacity="0"/>
    </radialGradient>
    <radialGradient id="glowC" cx="0" cy="0" r="1" gradientUnits="userSpaceOnUse" gradientTransform="translate(554 166) rotate(90) scale(138)">
      <stop stop-color="#E9FBFF" stop-opacity="0.52"/>
      <stop offset="1" stop-color="#E9FBFF" stop-opacity="0"/>
    </radialGradient>
    <linearGradient id="grid" x1="68" y1="72" x2="822" y2="448" gradientUnits="userSpaceOnUse">
      <stop stop-color="#F7FDFF"/>
      <stop offset="1" stop-color="#D7F4FB"/>
    </linearGradient>
    <linearGradient id="waveA" x1="72" y1="282" x2="834" y2="470" gradientUnits="userSpaceOnUse">
      <stop stop-color="#EAFBFF"/>
      <stop offset="1" stop-color="#CCF4FF"/>
    </linearGradient>
    <linearGradient id="waveB" x1="128" y1="-32" x2="848" y2="166" gradientUnits="userSpaceOnUse">
      <stop stop-color="#FFFFFF"/>
      <stop offset="1" stop-color="#E8FBFF"/>
    </linearGradient>
    <linearGradient id="windowA" x1="98" y1="98" x2="298" y2="230" gradientUnits="userSpaceOnUse">
      <stop stop-color="#FFFFFF"/>
      <stop offset="1" stop-color="#EEFCFF"/>
    </linearGradient>
    <linearGradient id="windowB" x1="366" y1="86" x2="522" y2="190" gradientUnits="userSpaceOnUse">
      <stop stop-color="#FFFFFF"/>
      <stop offset="1" stop-color="#F1FDFF"/>
    </linearGradient>
    <linearGradient id="windowC" x1="590" y1="110" x2="796" y2="260" gradientUnits="userSpaceOnUse">
      <stop stop-color="#FFFFFF"/>
      <stop offset="1" stop-color="#E8FBFF"/>
    </linearGradient>
    <linearGradient id="windowD" x1="158" y1="300" x2="394" y2="404" gradientUnits="userSpaceOnUse">
      <stop stop-color="#FFFFFF"/>
      <stop offset="1" stop-color="#F2FDFF"/>
    </linearGradient>
    <linearGradient id="windowE" x1="466" y1="310" x2="748" y2="418" gradientUnits="userSpaceOnUse">
      <stop stop-color="#FFFFFF"/>
      <stop offset="1" stop-color="#EBFCFF"/>
    </linearGradient>
    <linearGradient id="strokeA" x1="86" y1="74" x2="814" y2="432" gradientUnits="userSpaceOnUse">
      <stop stop-color="#FFFFFF"/>
      <stop offset="1" stop-color="#D6F4FB"/>
    </linearGradient>
    <filter id="softBlur" x="-72" y="-154" width="1058" height="772" filterUnits="userSpaceOnUse" color-interpolation-filters="sRGB">
      <feGaussianBlur stdDeviation="24"/>
    </filter>
    <filter id="glassShadow" x="62" y="58" width="776" height="388" filterUnits="userSpaceOnUse" color-interpolation-filters="sRGB">
      <feDropShadow dx="0" dy="14" stdDeviation="16" flood-color="#9DDAEC" flood-opacity="0.16"/>
    </filter>
  </defs>
</svg>
