<svg width="720" height="1180" viewBox="0 0 720 1180" fill="none" xmlns="http://www.w3.org/2000/svg">
  <rect width="720" height="1180" rx="40" fill="url(#bg)"/>
  <g opacity="0.95">
    <circle cx="142" cy="210" r="132" fill="url(#glow1)"/>
    <circle cx="560" cy="930" r="188" fill="url(#glow2)"/>
  </g>
  <g opacity="0.18" stroke="#F8FFFC">
    <path d="M108 290C210 248 304 236 398 252C510 270 590 326 640 412"/>
    <path d="M86 694C196 614 324 580 446 596C532 608 602 642 650 700"/>
    <path d="M126 1004C226 944 346 912 456 920C544 926 614 952 664 994"/>
  </g>
  <g filter="url(#soft)">
    <ellipse cx="230" cy="298" rx="122" ry="44" fill="#C9F6E5" fill-opacity="0.88"/>
    <rect x="108" y="298" width="244" height="140" rx="28" fill="url(#stack1)"/>
    <ellipse cx="230" cy="438" rx="122" ry="44" fill="#78DDB4" fill-opacity="0.72"/>
    <ellipse cx="502" cy="512" rx="112" ry="40" fill="#E5FFF4" fill-opacity="0.88"/>
    <rect x="390" y="512" width="224" height="132" rx="26" fill="url(#stack2)"/>
    <ellipse cx="502" cy="644" rx="112" ry="40" fill="#63CCA7" fill-opacity="0.7"/>
    <ellipse cx="272" cy="812" rx="136" ry="46" fill="#E7FFF5" fill-opacity="0.9"/>
    <rect x="136" y="812" width="272" height="150" rx="28" fill="url(#stack3)"/>
    <ellipse cx="272" cy="962" rx="136" ry="46" fill="#68D4AB" fill-opacity="0.7"/>
  </g>
  <g opacity="0.82">
    <rect x="412" y="184" width="164" height="116" rx="24" fill="url(#card1)"/>
    <rect x="148" y="540" width="148" height="108" rx="22" fill="url(#card2)"/>
    <rect x="430" y="776" width="176" height="124" rx="24" fill="url(#card3)"/>
  </g>
  <g opacity="0.26" stroke="#F6FFFB" stroke-width="2">
    <path d="M352 370L412 242"/>
    <path d="M296 612L390 578"/>
    <path d="M408 882L430 838"/>
  </g>
  <defs>
    <linearGradient id="bg" x1="88" y1="48" x2="642" y2="1124" gradientUnits="userSpaceOnUse">
      <stop stop-color="#E8FBF3"/>
      <stop offset="0.52" stop-color="#D7F3E8"/>
      <stop offset="1" stop-color="#C7EBDC"/>
    </linearGradient>
    <radialGradient id="glow1" cx="0" cy="0" r="1" gradientUnits="userSpaceOnUse" gradientTransform="translate(142 210) rotate(90) scale(132)">
      <stop stop-color="#F7FFFB" stop-opacity="0.88"/>
      <stop offset="1" stop-color="#F7FFFB" stop-opacity="0"/>
    </radialGradient>
    <radialGradient id="glow2" cx="0" cy="0" r="1" gradientUnits="userSpaceOnUse" gradientTransform="translate(560 930) rotate(90) scale(188)">
      <stop stop-color="#7FDEB8" stop-opacity="0.52"/>
      <stop offset="1" stop-color="#7FDEB8" stop-opacity="0"/>
    </radialGradient>
    <linearGradient id="stack1" x1="154" y1="310" x2="322" y2="426" gradientUnits="userSpaceOnUse">
      <stop stop-color="#F6FFF9"/>
      <stop offset="1" stop-color="#B3EDD3"/>
    </linearGradient>
    <linearGradient id="stack2" x1="432" y1="520" x2="596" y2="634" gradientUnits="userSpaceOnUse">
      <stop stop-color="#F8FFFB"/>
      <stop offset="1" stop-color="#A9E8CC"/>
    </linearGradient>
    <linearGradient id="stack3" x1="186" y1="826" x2="380" y2="948" gradientUnits="userSpaceOnUse">
      <stop stop-color="#F8FFFC"/>
      <stop offset="1" stop-color="#B0EFD0"/>
    </linearGradient>
    <linearGradient id="card1" x1="428" y1="190" x2="560" y2="290" gradientUnits="userSpaceOnUse">
      <stop stop-color="#F8FFFB" stop-opacity="0.96"/>
      <stop offset="1" stop-color="#C7F4DF" stop-opacity="0.72"/>
    </linearGradient>
    <linearGradient id="card2" x1="162" y1="550" x2="284" y2="638" gradientUnits="userSpaceOnUse">
      <stop stop-color="#F4FFF9" stop-opacity="0.94"/>
      <stop offset="1" stop-color="#C7F1DD" stop-opacity="0.7"/>
    </linearGradient>
    <linearGradient id="card3" x1="446" y1="790" x2="594" y2="892" gradientUnits="userSpaceOnUse">
      <stop stop-color="#F8FFFB" stop-opacity="0.96"/>
      <stop offset="1" stop-color="#BDEED5" stop-opacity="0.7"/>
    </linearGradient>
    <filter id="soft" x="84" y="274" width="554" height="716" filterUnits="userSpaceOnUse" color-interpolation-filters="sRGB">
      <feGaussianBlur stdDeviation="4"/>
    </filter>
  </defs>
</svg>
